<svg width="829" height="436" viewBox="0 0 829 436" fill="none" xmlns="http://www.w3.org/2000/svg">
<g clip-path="url(#clip0_24_509)">
<path d="M437.805 153.824C524.878 174.24 499.397 24.3868 560.958 28.7639C579.154 30.0458 590.816 48.9611 585.438 66.4071L547.733 189.248L586.752 207.475C609.2 195.251 684.955 91.638 710.843 117.525C734.01 168.144 574.464 237.646 638.276 267.723C683.673 289.108 784.347 185.621 799.167 258.218C802.825 276.071 792.789 293.954 775.655 300.239C746.266 311.056 700.275 326.376 689.207 335.131C678.139 343.885 684.455 352.326 683.517 363.05C742.327 366.614 860.352 338.476 820.083 435.867H619.83C604.448 156.138 221.732 157.232 210.226 435.867H14.5378C1.43772 435.867 -8.09814 392.033 9.94182 376.651C35.8606 354.515 112.585 366.083 146.477 363.05C170.144 339.57 101.955 316.309 59.8097 301.739C42.4263 295.737 32.8279 277.134 37.9553 259.469C42.4888 243.836 59.3094 235.301 74.598 240.898L178.523 279.01L206.693 245.275L125.967 147.571C113.054 131.939 129.937 108.334 148.321 116.869C185.089 133.971 224.327 223.983 267.754 199.972C308.43 172.99 200.503 62.624 246.056 30.4522C306.179 -12.0058 326.907 128.718 347.105 162.954L392.314 153.856V12.85C392.314 -4.28332 437.836 -4.28332 437.836 12.85V153.856L437.805 153.824Z" fill="#D4AF37"/>
<path d="M461.129 435.742C446.153 359.518 375.713 364.614 356.704 435.836H261.595C281.792 217.918 541.793 233.894 557.426 435.836L461.129 435.742Z" fill="#D4AF37"/>
</g>
<defs>
<clipPath id="clip0_24_509">
<rect width="828.306" height="435.835" fill="white"/>
</clipPath>
</defs>
</svg>
