<svg xmlns="http://www.w3.org/2000/svg" viewBox="0 0 2048 2048">
<path d="M304 1024L575.052 764.8L664 400.462L1024 505.6L1384 400.462L1472.95 764.8L1744 1024L1472.95 1283.2L1384 1647.54L1024 1542.4L664 1647.54L575.052 1283.2L304 1024Z" fill="black"/>
<path d="M1024 304L1283.2 575.052L1647.54 664L1542.4 1024L1647.54 1384L1283.2 1472.95L1024 1744L764.8 1472.95L400.462 1384L505.6 1024L400.462 664L764.8 575.052L1024 304Z" fill="black"/>
<path d="M1541.61 1023.49C1541.61 1309.64 1309.64 1541.61 1023.49 1541.61C737.346 1541.61 505.377 1309.64 505.377 1023.49C505.377 737.346 737.346 505.377 1023.49 505.377C1309.64 505.377 1541.61 737.346 1541.61 1023.49Z" fill="black"/>
</svg>